<svg width="19" height="19" viewBox="0 0 19 19" fill="none" xmlns="http://www.w3.org/2000/svg">
<path d="M16.6974 7.66757C16.6967 7.82946 16.6453 7.98706 16.5505 8.11827C16.4557 8.24947 16.3221 8.34768 16.1686 8.39912L14.8069 8.8482C14.3794 8.99115 13.9912 9.2319 13.673 9.55128C13.3549 9.87066 13.1157 10.2599 12.9744 10.6879L12.5036 12.0424C12.4496 12.1935 12.3511 12.3248 12.2211 12.419C12.1227 12.49 12.0088 12.5366 11.8888 12.5549C11.7688 12.5733 11.6462 12.563 11.531 12.5249C11.4158 12.4867 11.3113 12.4218 11.226 12.3354C11.1407 12.249 11.0772 12.1436 11.0405 12.0279L10.5842 10.6662C10.437 10.2369 10.1886 9.84927 9.85989 9.53629C9.54205 9.21005 9.15276 8.96209 8.72272 8.81198L7.36102 8.35567C7.20682 8.30713 7.0721 8.21072 6.97641 8.08043C6.88254 7.94814 6.83212 7.78994 6.83212 7.62773C6.83212 7.46552 6.88254 7.30733 6.97641 7.17504C7.07267 7.04092 7.20996 6.94177 7.36754 6.89256L8.722 6.43624C9.15793 6.28964 9.5527 6.04136 9.87365 5.71193C10.1996 5.39106 10.448 4.99921 10.598 4.56752L11.047 3.22755C11.0895 3.07445 11.1811 2.93956 11.3078 2.84366C11.4352 2.74142 11.5935 2.68526 11.7569 2.68431C11.9187 2.68041 12.0778 2.72589 12.2132 2.81469C12.3508 2.90103 12.4554 3.03114 12.5101 3.18409L12.9665 4.56752C13.1164 4.99921 13.3648 5.39106 13.6908 5.71193C14.0097 6.04039 14.4018 6.28861 14.8352 6.43624L16.1896 6.91429C16.3421 6.96199 16.4745 7.05875 16.5663 7.18953C16.6604 7.33004 16.7075 7.49736 16.6974 7.66757ZM9.54844 12.687C9.54809 12.8347 9.5026 12.9788 9.41806 13.0999C9.33053 13.2177 9.20929 13.3061 9.07039 13.3534L8.09257 13.6793C7.81862 13.7759 7.57072 13.9346 7.36826 14.1429C7.16192 14.347 7.00357 14.5944 6.9047 14.8672L6.56428 15.8378C6.51694 15.9767 6.42854 16.0979 6.31077 16.1855C6.18881 16.2712 6.04336 16.3172 5.89429 16.3172C5.74522 16.3172 5.59978 16.2712 5.47781 16.1855C5.36004 16.0979 5.27164 15.9767 5.2243 15.8378L4.90561 14.8672C4.80653 14.5943 4.64793 14.3469 4.44132 14.1429C4.23727 13.9366 3.98985 13.7782 3.71701 13.6793L2.73919 13.3607C2.59935 13.3114 2.47799 13.2204 2.39153 13.0999C2.30442 12.9796 2.25637 12.8355 2.25391 12.687C2.25652 12.5377 2.30525 12.3928 2.39342 12.2722C2.48159 12.1516 2.6049 12.0612 2.74644 12.0134L3.71701 11.6947C3.98886 11.5939 4.23573 11.4356 4.44074 11.2306C4.64576 11.0256 4.80408 10.7787 4.90488 10.5069L5.23082 9.55078C5.27423 9.41374 5.35744 9.29271 5.46985 9.20311C5.58736 9.11359 5.72944 9.06214 5.87703 9.05567C6.02462 9.04919 6.17066 9.088 6.29556 9.16689C6.41942 9.25236 6.51503 9.37332 6.5708 9.51456L6.89674 10.5069C6.99754 10.7787 7.15586 11.0256 7.36088 11.2306C7.56589 11.4356 7.81276 11.5939 8.08461 11.6947L9.05518 12.0352C9.19376 12.0793 9.31359 12.1686 9.39561 12.2887C9.48766 12.4018 9.54098 12.5414 9.54771 12.687" fill="#D78704"/>
</svg>
